<?xml version="1.0" standalone="no"?>
<!DOCTYPE svg PUBLIC "-//W3C//DTD SVG 20010904//EN"
 "http://www.w3.org/TR/2001/REC-SVG-20010904/DTD/svg10.dtd">
<svg version="1.0" xmlns="http://www.w3.org/2000/svg"
 width="255.000000pt" height="255.000000pt" viewBox="0 0 255.000000 255.000000"
 preserveAspectRatio="xMidYMid meet">
<metadata>
Created by potrace 1.11, written by Peter Selinger 2001-2013
</metadata>
<g transform="translate(0.000000,255.000000) scale(0.100000,-0.100000)"
fill="#000000" stroke="none">
<path d="M1179 2217 c-46 -61 -85 -114 -87 -117 -6 -8 -20 23 -26 60 -8 51
-34 73 -66 57 -19 -10 -28 -26 -39 -74 -13 -57 -17 -62 -45 -67 -17 -3 -42 -8
-56 -11 -13 -2 -32 -13 -42 -22 -15 -15 -16 -22 -5 -43 10 -20 26 -28 75 -38
50 -11 62 -17 62 -33 0 -22 -216 -314 -232 -314 -6 0 -23 47 -37 105 l-26 105
-35 0 -35 0 -25 -102 -24 -102 -46 -11 c-25 -7 -52 -13 -60 -15 -91 -18 -110
-32 -110 -75 0 -20 4 -22 144 -57 l70 -18 12 -47 c10 -42 9 -56 -8 -110 -27
-86 -33 -135 -32 -263 0 -128 7 -180 34 -265 72 -225 240 -392 465 -462 119
-37 333 -45 455 -18 349 78 571 365 570 734 0 217 -49 372 -163 515 -19 24
-34 49 -32 55 2 6 9 30 15 53 l10 41 128 31 c70 16 143 33 162 36 57 10 85 28
88 57 4 36 -9 42 -190 84 -84 19 -160 37 -169 40 -14 4 -50 122 -73 239 -26
129 -43 159 -83 149 -22 -6 -33 -23 -39 -59 -1 -11 -14 -65 -28 -120 -14 -55
-28 -113 -31 -130 -3 -16 -7 -36 -9 -43 -3 -15 -25 -32 -42 -32 -7 0 -69 78
-140 173 -70 94 -138 184 -150 199 l-22 27 -83 -112z m572 -4 c7 -32 13 -60
14 -63 12 -52 16 -68 19 -85 5 -28 25 -104 37 -141 9 -30 13 -32 127 -58 99
-23 135 -31 172 -41 3 0 22 -4 44 -9 42 -8 43 -15 0 -22 -16 -2 -35 -7 -43
-10 -8 -2 -55 -14 -105 -25 -50 -12 -95 -22 -101 -23 -5 -2 -27 -6 -48 -11
-20 -4 -39 -11 -42 -15 -4 -6 -51 -203 -69 -285 -11 -52 -19 -76 -22 -72 -3 3
-39 140 -49 187 -23 108 -39 167 -49 176 -6 6 -83 28 -171 48 -215 50 -207 47
-170 58 17 4 39 10 50 12 63 13 288 67 295 71 4 3 15 38 24 77 24 109 24 108
41 178 19 75 23 92 24 103 2 20 11 1 22 -50z m-725 -71 c2 -9 8 -36 14 -59 12
-41 13 -41 76 -54 71 -14 68 -25 -10 -35 -42 -6 -50 -11 -61 -38 -7 -17 -15
-46 -18 -64 -8 -51 -13 -48 -27 18 -14 65 -25 79 -67 86 -16 2 -42 8 -58 13
-28 8 -26 9 32 21 35 7 67 18 72 24 4 6 14 35 21 64 12 51 21 60 26 24z m-395
-374 c3 -48 38 -181 49 -188 6 -4 48 -15 93 -25 45 -10 86 -21 90 -25 4 -4
-37 -16 -91 -29 l-99 -22 -11 -37 c-6 -20 -16 -65 -23 -99 -6 -35 -15 -63 -18
-63 -4 0 -15 39 -24 87 -23 108 -29 119 -69 127 -65 12 -74 14 -116 25 -23 7
-42 13 -42 15 0 2 44 14 98 26 53 12 98 24 100 25 6 5 42 157 42 176 0 21 20
27 21 7z m736 -441 c81 -42 129 -131 120 -221 -8 -80 -49 -141 -121 -178 -146
-75 -321 36 -319 201 1 95 58 176 145 208 42 15 137 9 175 -10z m-404 -135
c26 -18 43 -39 45 -53 1 -13 10 -54 18 -90 14 -59 14 -70 1 -95 -45 -87 -154
-126 -244 -89 -146 61 -154 268 -12 339 69 34 135 30 192 -12z m820 1 c158
-110 79 -345 -114 -340 -69 2 -128 39 -157 98 -18 36 -19 44 -6 86 8 25 15 60
16 77 5 99 165 147 261 79z m-322 -422 c121 -51 218 -137 273 -243 l28 -53
-34 -28 c-40 -34 -158 -92 -225 -111 -237 -69 -519 -24 -700 111 -31 24 -31
24 -15 56 124 255 422 374 673 268z m-518 -9 c3 -4 -13 -23 -36 -42 -51 -40
-118 -121 -143 -172 -11 -21 -22 -38 -26 -38 -16 0 -128 160 -128 183 0 9 55
37 114 57 54 18 210 27 219 12z m899 -21 c80 -31 84 -39 53 -99 -14 -27 -42
-68 -61 -91 l-36 -42 -49 74 c-45 70 -139 167 -160 167 -6 0 -7 5 -3 11 12 19
190 5 256 -20z"/>
</g>
</svg>
