<svg xmlns="http://www.w3.org/2000/svg" width="748" height="267" viewBox="0 0 748 267">
  <defs>
    <style>
      .cls-1 {
        fill: #fff;
        fill-rule: evenodd;
      }
    </style>
  </defs>
  <path class="cls-1" d="M23,95H12s-5-.506-5,5V240s1.434,4,4,4H23s4-1.163,4-4V177H96v62a4.612,4.612,0,0,0,5,5h11s4-.151,4-6V99a6.087,6.087,0,0,0-6-4H100s-4,.782-4,4v59H27V100S27.817,95,23,95Z"/>
  <path class="cls-1" d="M286,39L268,64l-2-11s-1.3-2.719-3-3-5.171-.482-6,5a59.584,59.584,0,0,1-2,9l-10,2s-4.163.63-4,4,1.9,4.638,9,6,6.111,4.689,5,6-22,29-22,29-2.351,1.2-3-3-4-17-4-17a4.021,4.021,0,0,0-4-2c-3.052.119-3.5,1.22-4,3s-4,18-4,18l-19,5s-3.251,1-3,4,5.246,4.6,9,5,13,3,13,3l2,11s-7.077,13.149-6,34,4.674,42.449,34,63,82.385,9.8,98-10,20.877-32.972,21-54-5.854-36.459-12-46-8-10-8-10l3-11,34-8s4.352-1.292,4-5-5-4-5-4l-33-8-8-35s-0.649-3.726-4-4-4.376,3.072-5,5-8,33-8,33l-5,1Zm48,5,9,38,37,10-37,9-9,38-10-39-37-9,38-10ZM262,54l3,13,13,4-13,4-4,13-3-14-13-3,13-4ZM222,92l5,22,21,5-21,6-5,20-5-21-21-5,21-6Zm-1,110a48.938,48.938,0,0,0,6,11,46.746,46.746,0,0,0,8,9s3.233-11.349,11-18,10-8,10-8-6.215-2-16-1S221,202,221,202Zm97-5.981s6.311-1.891,18-1.019,17,7.273,17,7.273-3.544,7.69-7,11.727-7,8.212-7,8.212S331.642,203.537,318,196.019ZM237,224s16.037,18.066,48,18,51-17,51-17-8.008-21.321-27-29-35.408-4.886-48,2S238.67,220.918,237,224Zm27-64.5s1.317-22.5,22.5-22.5S309,159.5,309,159.5,308.581,182,286.5,182,264,159.5,264,159.5ZM328,149s19,1.083,19,19-19,19-19,19-8.436-.3-13-5a25.6,25.6,0,0,1-6-10,23.713,23.713,0,0,0,3-10c0.153-5.21,0-5,0-5S318.162,149,328,149Zm-82.5,0S227,150.331,227,167.5,245.5,187,245.5,187s9.769-.117,14.5-6,4-8,4-8a27.03,27.03,0,0,1-3-10c-0.558-5.794,0-6,0-6A19.3,19.3,0,0,0,245.5,149Z"/>
  <path class="cls-1" d="M539,125l7-13s1.429-5.641-16-13-39.912-9-58,1-21,27-21,27-0.719,10.537,1,18,4.1,15.758,19,25,30.882,11.643,39,14,19.812,7.295,21,16-1.056,14.741-5,18-8.215,8.552-26,8-21.478-4-28-8-10.872-8.182-13-8-9,11-9,11-2.63,4.432,1,7,15.357,14.878,41,18,42.638-7.118,51-16,9.551-26.976,7-37-11.117-21.987-27-27-31.948-8.172-44-16-10.515-23.042-1-30,27.352-10.509,43-3S532.362,127.405,539,125Z"/>
  <path id="Shape_2_copy" data-name="Shape 2 copy" class="cls-1" d="M729,125l7-13s1.429-5.641-16-13-39.912-9-58,1-21,27-21,27-0.719,10.537,1,18,4.1,15.758,19,25,30.882,11.643,39,14,19.812,7.295,21,16-1.056,14.741-5,18-8.215,8.552-26,8-21.478-4-28-8-10.872-8.182-13-8-9,11-9,11-2.63,4.432,1,7,15.357,14.878,41,18,42.638-7.118,51-16,9.551-26.976,7-37-11.117-21.987-27-27-31.948-8.172-44-16-10.515-23.042-1-30,27.352-10.509,43-3S722.362,127.405,729,125Z"/>
</svg>
